<svg xmlns="http://www.w3.org/2000/svg" viewBox="0 0 18.43 17.2"><defs><style>.cls-1{fill-rule:evenodd;}</style></defs><g id="Text"><path class="cls-1" d="M3.82,17.2a3.94,3.94,0,0,1-2.63-6.76L9.72,1.91c.28-.28.63-.26.76.05a.55.55,0,0,1,0,.36.9.9,0,0,1-.21.27L1.87,11A3,3,0,0,0,1,14a3.06,3.06,0,0,0,4.94,1.56l.25-.23Q11.52,10,16.85,4.69a2.19,2.19,0,0,0-2.91-3.27l-.22.2L5.21,10.14a1.55,1.55,0,0,0-.55,1,1.31,1.31,0,0,0,2.1,1.18L7,12,13.4,5.65c.24-.24.44-.28.64-.15a.4.4,0,0,1,.16.55,1,1,0,0,1-.18.22L7.57,12.73A2.19,2.19,0,0,1,4.21,9.94c.13-.16.26-.3.4-.45L13.13,1A3,3,0,0,1,16.43.2a3.06,3.06,0,0,1,1.26,4.87l-.24.25L6.8,16A4,4,0,0,1,3.82,17.2Z"/></g></svg>