<svg xmlns="http://www.w3.org/2000/svg" viewBox="0 0 19.5 15.01"><g id="Text"><path d="M9.73,15h-8A1.59,1.59,0,0,1,0,13.28V4.1A1.57,1.57,0,0,1,1.71,2.39H4.59A.48.48,0,0,0,5,2.25L6.68.49A1.57,1.57,0,0,1,7.83,0h3.89a1.64,1.64,0,0,1,1.22.55c.55.56,1.11,1.11,1.65,1.67A.53.53,0,0,0,15,2.4h2.81A1.56,1.56,0,0,1,19.5,4.06v9.26A1.58,1.58,0,0,1,17.82,15Zm0-2.38A4.34,4.34,0,1,0,5.42,8.29,4.33,4.33,0,0,0,9.75,12.63Zm7.89-7.74a.64.64,0,0,0,.64-.66.65.65,0,0,0-.66-.65.66.66,0,0,0-.64.67A.64.64,0,0,0,17.64,4.89Z"/></g></svg>