<svg xmlns="http://www.w3.org/2000/svg" viewBox="0 0 26.75 26.75"><defs><style>.cls-1{fill:#fff;}</style></defs><g id="Text"><circle class="cls-1" cx="13.38" cy="13.38" r="13.38"/><path d="M11.71,14.07H9.45c-.11,0-.15,0-.15-.14q0-1.26,0-2.52c0-.11,0-.14.14-.14H11.7v-.14c0-.65,0-1.3,0-2a4.1,4.1,0,0,1,.4-1.86,3.13,3.13,0,0,1,2.32-1.69,8.07,8.07,0,0,1,1.77,0c.38,0,.75,0,1.13.07.09,0,.12,0,.12.14V8.06c0,.1,0,.12-.14.12-.54,0-1.08,0-1.61,0a1.58,1.58,0,0,0-.61.16.87.87,0,0,0-.47.8c0,.48,0,1,0,1.46v.64h2.74c0,.14,0,.26,0,.38-.1.77-.21,1.54-.3,2.31,0,.11-.06.12-.15.12H14.74c-.12,0-.14,0-.14.15V21c0,.19,0,.19-.19.19H11.87c-.16,0-.16,0-.16-.16v-7Z"/></g></svg>