<svg xmlns="http://www.w3.org/2000/svg" viewBox="0 0 601.91 202.4"><defs><style>.cls-1{fill:#f4f4f4;}</style></defs><g id="Text"><path class="cls-1" d="M96.34,161.09c1.88-4.38.2-9-4.39-11.94l-13-8.43-1.82-1.19,6.23-2.21.06,0c4.06-1.48,6.87-4.31,7.54-7.59s-.93-6.52-4.25-8.68l-12.87-8.37,56.31-17.38.25-.08c4.91-1.67,8.2-4.8,9-8.6s-1-7.83-4.92-10.36a18.75,18.75,0,0,0-12.16-2.56L45.06,82.76c-6.12.67-11.08,3.78-13,8.14s-.2,8.95,4.39,11.93l12,7.83-6.26,1.94-.25.08c-4.12,1.4-7,4.19-7.73,7.47s.84,6.53,4.17,8.69l14.36,9.35L9.35,153.64l-.06,0c-5,1.82-8.32,5.11-9.11,9s1.18,8.1,5.2,10.71a19.58,19.58,0,0,0,12.73,2.68l65.21-6.85C89.47,168.58,94.46,165.46,96.34,161.09Z"/><path class="cls-1" d="M154.18,125.1V60.25h59.07V77.36H177.76v6.42h34.67v17.11H177.76V125.1Z"/><path class="cls-1" d="M223.29,125.1V60.25h23.58V125.1Z"/><path class="cls-1" d="M311.78,125.1,283.06,92.24V125.1H259.48V60.25h24.28L310.84,91V60.25h23.58V125.1Z"/><path class="cls-1" d="M347,125.1V60.25h34.79c24.52,0,42.73,11.67,42.73,32.38s-18.21,32.47-42.61,32.47Zm53.59-32.47c0-8.75-6.07-15.27-18.68-15.27H370.61V108h11.21C393.61,108,400.62,100.79,400.62,92.63Z"/><path class="cls-1" d="M153.87,201.24V136.39h51v7.19H163.56v20.91h40.51v7.19H163.56v29.56Z"/><path class="cls-1" d="M263.26,201.24l-19.73-25.77H227.89v25.77H218.2V136.39h31.28c14.24,0,24.52,7.58,24.52,19.54,0,11.67-9.69,18.09-20.32,18.86l21,26.45Zm.7-45.31c0-7.39-6.42-12.35-15.65-12.35H227.89v24.8h20.42C257.54,168.38,264,163.22,264,155.93Z"/><path class="cls-1" d="M289.29,201.24V136.39H299v64.85Z"/><path class="cls-1" d="M317.19,201.24V136.39h51v7.19H326.88v20.91h40.51v7.19H326.88V194H368.2v7.2Z"/><path class="cls-1" d="M438.71,201.24,393.3,149.52v51.72h-9.69V136.39h9.93L438.36,187V136.39h9.69v64.85Z"/><path class="cls-1" d="M466.26,201.24V136.39h26.62c24.28,0,39.92,14.1,39.92,32.47s-15.64,32.38-39.92,32.38Zm56.5-32.38c0-14-10.62-25.28-29.88-25.28H476V194h16.93C511.79,194,522.76,182.77,522.76,168.86Z"/><path class="cls-1" d="M543.31,192.1l5.84-6.22a35,35,0,0,0,24.39,9.33c13.9,0,18.33-6.22,18.33-11.28,0-16.72-46.11-7.39-46.11-30.53,0-10.69,11.44-18.08,26.85-18.08,11.79,0,21,3.4,27.55,9.14l-5.84,5.93c-5.83-5.44-14-7.78-22.53-7.78-9.22,0-16,4.18-16,10.31,0,14.58,46.11,6.22,46.11,30.43,0,9.33-7.7,19.05-28.72,19.05C559.77,202.4,549.73,198.13,543.31,192.1Z"/><path class="cls-1" d="M154.18,125.1V60.25h59.07V77.36H177.76v6.42h34.67v17.11H177.76V125.1Z"/><path class="cls-1" d="M223.29,125.1V60.25h23.58V125.1Z"/><path class="cls-1" d="M311.78,125.1,283.06,92.24V125.1H259.48V60.25h24.28L310.84,91V60.25h23.58V125.1Z"/><path class="cls-1" d="M347,125.1V60.25h34.79c24.52,0,42.73,11.67,42.73,32.38s-18.21,32.47-42.61,32.47Zm53.59-32.47c0-8.75-6.07-15.27-18.68-15.27H370.61V108h11.21C393.61,108,400.62,100.79,400.62,92.63Z"/><path class="cls-1" d="M153.87,201.24V136.39h51v7.19H163.56v20.91h40.51v7.19H163.56v29.56Z"/><path class="cls-1" d="M263.26,201.24l-19.73-25.77H227.89v25.77H218.2V136.39h31.28c14.24,0,24.52,7.58,24.52,19.54,0,11.67-9.69,18.09-20.32,18.86l21,26.45Zm.7-45.31c0-7.39-6.42-12.35-15.65-12.35H227.89v24.8h20.42C257.54,168.38,264,163.22,264,155.93Z"/><path class="cls-1" d="M289.29,201.24V136.39H299v64.85Z"/><path class="cls-1" d="M317.19,201.24V136.39h51v7.19H326.88v20.91h40.51v7.19H326.88V194H368.2v7.2Z"/><path class="cls-1" d="M438.71,201.24,393.3,149.52v51.72h-9.69V136.39h9.93L438.36,187V136.39h9.69v64.85Z"/><path class="cls-1" d="M466.26,201.24V136.39h26.62c24.28,0,39.92,14.1,39.92,32.47s-15.64,32.38-39.92,32.38Zm56.5-32.38c0-14-10.62-25.28-29.88-25.28H476V194h16.93C511.79,194,522.76,182.77,522.76,168.86Z"/><path class="cls-1" d="M543.31,192.1l5.84-6.22a35,35,0,0,0,24.39,9.33c13.9,0,18.33-6.22,18.33-11.28,0-16.72-46.11-7.39-46.11-30.53,0-10.69,11.44-18.08,26.85-18.08,11.79,0,21,3.4,27.55,9.14l-5.84,5.93c-5.83-5.44-14-7.78-22.53-7.78-9.22,0-16,4.18-16,10.31,0,14.58,46.11,6.22,46.11,30.43,0,9.33-7.7,19.05-28.72,19.05C559.77,202.4,549.73,198.13,543.31,192.1Z"/><path class="cls-1" d="M41,182.27v2.4c0,9.13,8.92,16.57,19.89,16.57h4.35c11,0,19.9-7.44,19.9-16.57v-7Z"/><path class="cls-1" d="M184.91,0h-124C50,0,41,7.43,41,16.57V75.21q.67-.1,1.38-.18l42.76-5V46.35c0-7.28,7.11-13.21,15.86-13.21h83.88c11,0,19.9-7.43,19.9-16.57S195.88,0,184.91,0Z"/></g></svg>