<svg xmlns="http://www.w3.org/2000/svg" viewBox="0 0 33.9 33.9"><defs><style>.cls-1{fill:#fff;}</style></defs><g id="Text"><circle cx="16.95" cy="16.95" r="16.95"/><path class="cls-1" d="M6,19.68l1.52-2.77a14.49,14.49,0,0,1-1.38-1.15A5,5,0,0,1,7.58,8a4.3,4.3,0,0,1,1.84-.41c2.27,0,4.55,0,6.82,0a4.66,4.66,0,0,1,4.56,3.58,5.06,5.06,0,0,1,.06,2.19c0,.09,0,.17,0,.29h.25c.92,0,1.85,0,2.78,0a5,5,0,0,1,5,3.88,5.42,5.42,0,0,1-2.53,6.14c-.33.18-.69.31-1.05.47l1.18,2.14-.23-.1-3.51-1.78a1.26,1.26,0,0,0-.57-.14c-2.26,0-4.53,0-6.79,0a5.1,5.1,0,0,1-5.07-4.63,5.77,5.77,0,0,1,.12-2,.9.9,0,0,0,0-.13L8.21,18.6,6,19.72Zm1.6-1.55,0,0,.21-.1c.86-.44,1.72-.89,2.59-1.31a1.36,1.36,0,0,1,.59-.15h5.38a3.77,3.77,0,0,0,1.8-.47,4.28,4.28,0,0,0,2-4.86,3.93,3.93,0,0,0-3.74-3h-7A3.49,3.49,0,0,0,7.26,9,4.14,4.14,0,0,0,5.6,13.2a4,4,0,0,0,2.58,3.19l.31.11Zm15.89,1.94a1.16,1.16,0,1,0-1.18-1.15A1.16,1.16,0,0,0,23.49,20.07Zm-4-2.31a1.16,1.16,0,1,0,1.15,1.16A1.16,1.16,0,0,0,19.44,17.76Zm-4.1,0a1.15,1.15,0,0,0-1.19,1.13,1.18,1.18,0,1,0,1.19-1.13Z"/><path class="cls-1" d="M13,13.49a.91.91,0,1,1,0-1.81.92.92,0,0,1,.92.91A.9.9,0,0,1,13,13.49Z"/><path class="cls-1" d="M8.89,12.59a.91.91,0,0,1,.94-.91.92.92,0,0,1,.92.89.93.93,0,0,1-1.86,0Z"/><path class="cls-1" d="M16.24,13.49a.89.89,0,0,1-.92-.9.92.92,0,0,1,1.84,0A.89.89,0,0,1,16.24,13.49Z"/></g></svg>