<svg xmlns="http://www.w3.org/2000/svg" viewBox="0 0 33.9 33.9"><defs><style>.cls-1{fill:#fff;}</style></defs><g id="Text"><circle cx="16.95" cy="16.95" r="16.95"/><path class="cls-1" d="M20.14,17.64A4.65,4.65,0,1,0,15.5,13,4.65,4.65,0,0,0,20.14,17.64Zm0-8A3.39,3.39,0,1,1,16.76,13,3.39,3.39,0,0,1,20.14,9.61Z"/><path class="cls-1" d="M23.7,18.94H17c-3.67,0-4.64,3.62-4.64,5.53v1.08h16V24.47C28.34,22.56,27.38,18.94,23.7,18.94ZM13.64,24.29c.06-1.52.81-4.09,3.38-4.09H23.7c2.55,0,3.31,2.52,3.38,4.09Z"/><path class="cls-1" d="M12.76,17a.87.87,0,0,0-.87-.87H10V14.22a.87.87,0,1,0-1.73,0v1.86H6.42a.87.87,0,0,0,0,1.74H8.29v1.86a.87.87,0,1,0,1.73,0V17.82h1.87A.87.87,0,0,0,12.76,17Z"/></g></svg>