<svg xmlns="http://www.w3.org/2000/svg" viewBox="0 0 27.37 20.38"><defs><style>.cls-1{fill:#f4f4f4;}</style></defs><g id="Text"><path class="cls-1" d="M12.18,2,22.52,0A2.18,2.18,0,0,1,25,1.36a2.23,2.23,0,0,1,.13.44L27.34,14a2.18,2.18,0,0,1-1.76,2.55L4.84,20.34a2.18,2.18,0,0,1-2.56-1.77Q1.16,12.51,0,6.44A2.18,2.18,0,0,1,1.81,3.87ZM1.58,5V5l12.43,7L23.13,1V1a3.88,3.88,0,0,0-.48,0L7,3.9,2,4.81A3.88,3.88,0,0,0,1.58,5ZM4.16,19.41a3.57,3.57,0,0,0,.59,0l16.81-3.1,3.8-.71a3.81,3.81,0,0,0,.51-.17L17.3,9.51l-.1.12-2.64,3.16a.51.51,0,0,1-.76.14l-3.6-2-.14-.07Zm-.81-.62,5.82-8.45L1,5.76A4.12,4.12,0,0,0,1,6.3q1.11,6,2.23,12.06C3.26,18.5,3.31,18.63,3.35,18.79Zm23.06-4.25c0-.18,0-.34-.05-.49l-2.22-12a2.8,2.8,0,0,0-.06-.28A1.87,1.87,0,0,0,24,1.53l-6,7.2Z"/></g></svg>