<svg xmlns="http://www.w3.org/2000/svg" xmlns:xlink="http://www.w3.org/1999/xlink" viewBox="0 0 33.8 33.8"><defs><style>.cls-1{fill:url(#linear-gradient);}.cls-2{fill:#fff;}</style><linearGradient id="linear-gradient" y1="16.9" x2="33.8" y2="16.9" gradientUnits="userSpaceOnUse"><stop offset="0" stop-color="#e952c2"/><stop offset="1" stop-color="#ef9a4c"/></linearGradient></defs><g id="Text"><circle class="cls-1" cx="16.9" cy="16.9" r="16.9"/><path class="cls-2" d="M19.33,16.9a2.4,2.4,0,1,1-2.39-2.41A2.36,2.36,0,0,1,19.33,16.9Z"/><path class="cls-2" d="M7.32,16.41c.52-.65,1-1.32,1.58-1.95a11.65,11.65,0,0,1,5.27-3.57,9.48,9.48,0,0,1,8.88,1.74,13.52,13.52,0,0,1,3.34,3.65.54.54,0,0,1,.07.42,13.18,13.18,0,0,1-6.25,6c-3.14,1.31-6,.65-8.67-1.36a17.57,17.57,0,0,1-4-4.46.82.82,0,0,0-.17-.2Zm13.61.51a4,4,0,1,0-4,4A4,4,0,0,0,20.93,16.92Z"/></g></svg>