<svg xmlns="http://www.w3.org/2000/svg" viewBox="0 0 33.9 33.9"><defs><style>.cls-1{fill:#fff;}</style></defs><g id="Text"><circle cx="16.95" cy="16.95" r="16.95"/><path class="cls-1" d="M21.2,18.81a4.32,4.32,0,1,0-4.31-4.32A4.32,4.32,0,0,0,21.2,18.81Zm-3.14-4.32a3.15,3.15,0,1,1,3.14,3.15A3.15,3.15,0,0,1,18.06,14.49Z"/><path class="cls-1" d="M24.52,20H18.3C14.89,20,14,23.39,14,25.17v1H28.84v-1C28.84,23.39,27.94,20,24.52,20Zm-9.36,5c.05-1.41.75-3.81,3.14-3.81h6.22c2.37,0,3.08,2.35,3.14,3.81Z"/><path class="cls-1" d="M10.15,13.81a3,3,0,1,0-3-3A3,3,0,0,0,10.15,13.81Zm-2.22-3A2.22,2.22,0,1,1,10.15,13,2.21,2.21,0,0,1,7.93,10.77Z"/><path class="cls-1" d="M12.48,14.67H8.1c-2.4,0-3,2.37-3,3.62V19H15.52v-.71C15.52,17,14.89,14.67,12.48,14.67Zm-6.59,3.5c0-1,.53-2.68,2.21-2.68h4.38c1.67,0,2.17,1.66,2.22,2.68Z"/></g></svg>