<svg xmlns="http://www.w3.org/2000/svg" xmlns:xlink="http://www.w3.org/1999/xlink" viewBox="0 0 10.86 14.69"><defs><style>.cls-1{fill:url(#linear-gradient);}</style><linearGradient id="linear-gradient" x1="4.03" y1="14.15" x2="6.23" y2="0.63" gradientUnits="userSpaceOnUse"><stop offset="0" stop-color="#e952c2"/><stop offset="1" stop-color="#ef9a4c"/></linearGradient></defs><g id="Text"><path class="cls-1" d="M5.05,0h.74A5,5,0,0,1,7.63.46,5.63,5.63,0,0,1,10.29,3a5.3,5.3,0,0,1,.55,2.05,5.77,5.77,0,0,1-.08,1.55,5.26,5.26,0,0,1-.86,2c-1.42,2-2.91,4-4.4,6l-.06.07-.08-.09c-1.46-2-2.93-4-4.39-6a3.12,3.12,0,0,1-.29-.45A5.6,5.6,0,0,1,.07,4.63,5.44,5.44,0,0,1,1.5,1.71a5.36,5.36,0,0,1,3-1.63C4.67,0,4.86,0,5.05,0ZM7.49,5.41a1.73,1.73,0,0,0-.14-.83A2.08,2.08,0,1,0,5.19,7.44a2.26,2.26,0,0,0,.93-.1,2.09,2.09,0,0,0,1-.78A1.69,1.69,0,0,0,7.49,5.41Z"/></g></svg>