<svg xmlns="http://www.w3.org/2000/svg" viewBox="0 0 15.74 21.29"><g id="Text"><path d="M7.32,0h.94l.13,0a7.13,7.13,0,0,1,2.67.65,8.1,8.1,0,0,1,3.85,3.7,7.39,7.39,0,0,1,.8,3,8.41,8.41,0,0,1-.11,2.24,7.51,7.51,0,0,1-1.26,2.92c-2.05,2.94-4.21,5.82-6.37,8.7l-.09.1-.11-.13L1.4,12.49A5.54,5.54,0,0,1,1,11.84,8.17,8.17,0,0,1,.1,6.72,7.87,7.87,0,0,1,2.18,2.48,7.77,7.77,0,0,1,6.5.11C6.77.06,7.05,0,7.32,0Zm3.54,7.84a2.83,2.83,0,0,0-.2-1.21A3,3,0,0,0,4.89,8.22a3,3,0,0,0,2.62,2.56,3.14,3.14,0,0,0,1.36-.14,2.9,2.9,0,0,0,1.47-1.13A2.48,2.48,0,0,0,10.86,7.84Z"/></g></svg>