<svg xmlns="http://www.w3.org/2000/svg" viewBox="0 0 17.55 22.6"><defs><style>.cls-1{fill:#f4f4f4;}</style></defs><g id="Text"><path class="cls-1" d="M8,12.31a2.19,2.19,0,0,0-1.43,1.48A2.31,2.31,0,0,0,7,15.88c0,.33,0,.67,0,1V18.6a1,1,0,0,0,1.13,1.13H9.35a1,1,0,0,0,1.15-1.14V16.35a1.24,1.24,0,0,1,.18-.8A2.11,2.11,0,0,0,10.5,13,2.33,2.33,0,0,0,8,12.31Zm2,2.82a2,2,0,0,0-.31,1.22v2.24c0,.31-.08.39-.4.39H8.18c-.3,0-.38-.08-.38-.39v-1.7c0-.35,0-.69,0-1a1,1,0,0,0-.19-.53A1.43,1.43,0,0,1,7.33,14a1.46,1.46,0,0,1,.95-1A1.49,1.49,0,0,1,8.75,13a1.52,1.52,0,0,1,1.16.49A1.38,1.38,0,0,1,10.06,15.13Z"/><path class="cls-1" d="M17,9.32a1.35,1.35,0,0,0-1.09-.49V8.26c0-.54,0-1.07,0-1.6a7,7,0,0,0-1.6-4A6.8,6.8,0,0,0,10.5.22,6.93,6.93,0,0,0,5.09,1,7,7,0,0,0,1.78,5.76a8.91,8.91,0,0,0-.15,1.53v.12c0,.41,0,.82,0,1.24v.19A1.65,1.65,0,0,0,0,10.36a2.92,2.92,0,0,0,0,.51v9.68a2.28,2.28,0,0,0,.39,1.39,1.78,1.78,0,0,0,.87.63l15,0,.06,0a1.85,1.85,0,0,0,1.26-1.91c0-3.3,0-6.61,0-9.91A2,2,0,0,0,17,9.32Zm-.23,11.34a1.13,1.13,0,0,1-.71,1.19H1.46A1.06,1.06,0,0,1,1,21.51a1.61,1.61,0,0,1-.25-1V10.87a2.93,2.93,0,0,1,0-.41.92.92,0,0,1,1-.88h.59V8.64c0-.4,0-.8,0-1.2V7.32a9.1,9.1,0,0,1,.13-1.4,6.29,6.29,0,0,1,3-4.25A6.23,6.23,0,0,1,10.33,1,6.11,6.11,0,0,1,13.71,3.1a6.21,6.21,0,0,1,1.43,3.6c0,.52,0,1,0,1.56V9.58h.76a.65.65,0,0,1,.53.24,1.35,1.35,0,0,1,.32.93C16.8,14.05,16.8,17.36,16.79,20.66Z"/><path class="cls-1" d="M12.2,4.54A4.31,4.31,0,0,0,4.49,6.6c-.06.6-.06,1.2-.06,1.78,0,.25,0,.51,0,.77l.18.42h8.51V7.19A4.37,4.37,0,0,0,12.2,4.54Zm.17,4.28H5.19c0-.15,0-.3,0-.45,0-.56,0-1.14.05-1.69A3.57,3.57,0,0,1,11.61,5a3.65,3.65,0,0,1,.76,2.21V8.82Z"/></g></svg>