<svg xmlns="http://www.w3.org/2000/svg" viewBox="0 0 33.9 33.9"><defs><style>.cls-1{fill:#fff;}</style></defs><g id="Text"><circle cx="16.95" cy="16.95" r="16.95"/><path class="cls-1" d="M21.84,23.1a3,3,0,0,0-1.88.68l-8.11-4.62a3.32,3.32,0,0,0,0-1L20,13.56a3,3,0,1,0-1.11-2.31,3.43,3.43,0,0,0,.05.56l-8.17,4.58a3,3,0,1,0-1.84,5.27,2.92,2.92,0,0,0,1.92-.72l8.08,4.61a2.78,2.78,0,0,0,0,.51,3,3,0,1,0,2.95-3Z"/><path class="cls-1" d="M26.05,6.58a6.07,6.07,0,0,0-7.81-.5A6.23,6.23,0,0,0,15.76,11a4.49,4.49,0,0,0,0,.64l.95-.54a5.18,5.18,0,1,1,2.78,4.59l-1.27.71,3.12,4.4a.51.51,0,0,0,.92,0l4.55-6.42A6.07,6.07,0,0,0,26.05,6.58Z"/></g></svg>