<svg xmlns="http://www.w3.org/2000/svg" viewBox="0 0 46.56 46.56"><defs><style>.cls-1{fill:none;stroke:#fff;stroke-miterlimit:10;}</style></defs><g id="Text"><circle cx="23.28" cy="23.28" r="23.28"/><path class="cls-1" d="M20.05,8.34H26.3c.33.15.57.36.48.78a.14.14,0,0,0,0,.09c.18,1.18.37,2.36.54,3.54a.48.48,0,0,0,.27.37c.71.4,1.42.81,2.11,1.23a.46.46,0,0,0,.48.05c.89-.37,1.78-.72,2.67-1.08.29-.11.58-.24.87-.33a.73.73,0,0,1,1,.41q1.39,2.41,2.77,4.83a.79.79,0,0,1-.23,1.21c-.86.69-1.7,1.4-2.57,2.07-.29.22-.47.43-.31.81a.83.83,0,0,1,0,.32c0,.61-.06,1.22-.11,1.82a.58.58,0,0,0,.26.61c1,.7,2.07,1.42,3.1,2.14a.63.63,0,0,1,.27.8,1.77,1.77,0,0,1-.16.34L35,33.24a.78.78,0,0,1-1.18.4l-3.36-1.33a.44.44,0,0,0-.34,0c-.75.43-1.49.86-2.23,1.31a.51.51,0,0,0-.22.33c-.2,1.17-.37,2.34-.55,3.51a.82.82,0,0,1-.84.76h-5.9a.73.73,0,0,1-.82-.72c-.18-1.18-.35-2.37-.55-3.54a.58.58,0,0,0-.24-.35c-.73-.44-1.47-.87-2.21-1.29a.44.44,0,0,0-.34,0c-1.12.43-2.23.88-3.35,1.33l-.42.12a.69.69,0,0,1-.76-.35c-.95-1.65-1.89-3.31-2.83-5a.77.77,0,0,1,.22-1.17L11.85,25c.08-.06.19-.19.17-.26a6.9,6.9,0,0,1,0-2.64.41.41,0,0,0-.2-.43C10.9,21,10,20.26,9,19.54a.85.85,0,0,1-.26-1.26q1.34-2.36,2.69-4.7a1,1,0,0,1,1.43-.49L16,14.4a.43.43,0,0,0,.46,0c.72-.45,1.46-.87,2.19-1.31a.34.34,0,0,0,.16-.24c.18-1.16.37-2.32.52-3.49A1,1,0,0,1,20.05,8.34Zm3.12,9.76a5.25,5.25,0,1,0,5.25,5.27A5.34,5.34,0,0,0,23.17,18.1Z"/></g></svg>