<svg xmlns="http://www.w3.org/2000/svg" viewBox="0 0 21.01 30.85"><defs><style>.cls-1{fill:#f4f4f4;}</style></defs><g id="Text"><path class="cls-1" d="M8.66,30.85A2.76,2.76,0,0,1,6,28.77L.09,5.93a2.75,2.75,0,0,1,.29-2.1A2.81,2.81,0,0,1,2.07,2.56L11.65.09a2.75,2.75,0,0,1,2.1.29A2.81,2.81,0,0,1,15,2.07l5.9,22.85a2.76,2.76,0,0,1-2,3.36L9.35,30.76A2.72,2.72,0,0,1,8.66,30.85ZM12.35,1a1.74,1.74,0,0,0-.45.06L2.32,3.53A1.75,1.75,0,0,0,1.06,5.68L7,28.52A1.75,1.75,0,0,0,9.1,29.79l9.58-2.47A1.77,1.77,0,0,0,20,25.17L14.05,2.32a1.75,1.75,0,0,0-.81-1.07A1.69,1.69,0,0,0,12.35,1Z"/></g></svg>