<svg xmlns="http://www.w3.org/2000/svg" viewBox="0 0 48.65 48.65"><defs><style>.cls-1{fill:#ededee;stroke:#fff;stroke-miterlimit:10;stroke-width:3px;}</style></defs><g id="Text"><circle class="cls-1" cx="24.32" cy="24.32" r="22.82"/><path d="M24.3,34.29H13.66A2.11,2.11,0,0,1,11.37,32V19.8a2.08,2.08,0,0,1,2.27-2.26h3.83a.63.63,0,0,0,.49-.2c.75-.78,1.52-1.55,2.29-2.33a2,2,0,0,1,1.52-.65h5.17a2.2,2.2,0,0,1,1.63.73c.72.74,1.46,1.47,2.18,2.22a.73.73,0,0,0,.57.23h3.73a2.07,2.07,0,0,1,2.23,2.21v12.3A2.1,2.1,0,0,1,35,34.29Zm0-3.15a5.77,5.77,0,1,0-5.74-5.77A5.75,5.75,0,0,0,24.32,31.14ZM34.81,20.86a.86.86,0,0,0,.85-.89.88.88,0,0,0-.88-.86.89.89,0,0,0-.86.89A.88.88,0,0,0,34.81,20.86Z"/></g></svg>