<svg xmlns="http://www.w3.org/2000/svg" viewBox="0 0 33.9 33.9"><defs><style>.cls-1{fill:#fff;}</style></defs><g id="Text"><circle cx="16.95" cy="16.95" r="16.95"/><path class="cls-1" d="M25.78,24.08a1.78,1.78,0,0,0-1.2.47L21.8,23a2,2,0,0,0,0-.35,1.6,1.6,0,0,0,0-.23l2.81-1.53A1.8,1.8,0,1,0,24,19.56a1.49,1.49,0,0,0,0,.21l-2.83,1.54A1.74,1.74,0,0,0,20,20.9a1.8,1.8,0,1,0,0,3.59,1.83,1.83,0,0,0,1.05-.34L24,25.73c0,.05,0,.1,0,.15a1.8,1.8,0,1,0,1.8-1.8Z"/><path class="cls-1" d="M6.33,15.8c0-2.3,0-4.61,0-6.91A2.52,2.52,0,0,1,9,6.22H19.3a2.49,2.49,0,0,1,2.59,2.56c0,3.15,0,6.3,0,9.45,0,.36-.08.7-.46.77a.89.89,0,0,1-.72-.19.94.94,0,0,1-.19-.66c0-1.79,0-3.58,0-5.37V8.91A1.16,1.16,0,0,0,19.2,7.6H9A1.17,1.17,0,0,0,7.7,8.92V22.79A1.16,1.16,0,0,0,9,24.09c2.43,0,4.86,0,7.3,0h.34a.67.67,0,0,1,.7.66.66.66,0,0,1-.7.7c-1,0-2,0-2.92,0H9.08a2.54,2.54,0,0,1-2.75-2.75Z"/><path class="cls-1" d="M14.1,17.22H11.31c-.62,0-.85-.24-.86-.86a2.55,2.55,0,0,1,2.78-2.81h2a2.55,2.55,0,0,1,2.55,3.1.64.64,0,0,1-.73.57Z"/><path class="cls-1" d="M14.1,20H10.84c-.53,0-.84-.26-.84-.69s.31-.68.85-.68c2.18,0,4.37,0,6.55,0,.51,0,.82.25.84.66s-.32.71-.84.71Z"/><path class="cls-1" d="M14.13,9a1.84,1.84,0,1,1-1.85,1.8A1.85,1.85,0,0,1,14.13,9Z"/><path class="cls-1" d="M13.2,21.34h2.35c.54,0,.86.25.87.68s-.31.7-.84.7H10.82a.72.72,0,0,1-.8-.51.68.68,0,0,1,.73-.86Z"/></g></svg>