<svg xmlns="http://www.w3.org/2000/svg" viewBox="0 0 33.9 33.9"><defs><style>.cls-1{fill:#fff;}</style></defs><g id="Text"><circle cx="16.95" cy="16.95" r="16.95"/><polygon class="cls-1" points="26.81 10.53 26.81 11.68 29.33 11.68 29.33 14.2 30.48 14.2 30.48 10.53 26.81 10.53"/><polygon class="cls-1" points="4.57 11.68 7.09 11.68 7.09 10.53 3.42 10.53 3.42 14.2 4.57 14.2 4.57 11.68"/><polygon class="cls-1" points="4.57 19.7 3.42 19.7 3.42 23.37 7.09 23.37 7.09 22.22 4.57 22.22 4.57 19.7"/><polygon class="cls-1" points="29.33 22.22 26.81 22.22 26.81 23.37 30.48 23.37 30.48 19.7 29.33 19.7 29.33 22.22"/><polygon class="cls-1" points="8.91 14.22 7.09 14.22 7.09 19.62 11.35 19.62 11.35 18.21 8.91 18.21 8.91 14.22"/><rect class="cls-1" x="12.47" y="14.22" width="1.82" height="5.41"/><polygon class="cls-1" points="18.45 17.37 17.16 14.22 15.2 14.22 17.49 19.62 19.28 19.62 21.57 14.22 19.77 14.22 18.45 17.37"/><polygon class="cls-1" points="26.86 18.25 24.15 18.25 24.15 17.54 26.44 17.54 26.44 16.22 24.15 16.22 24.15 15.59 26.75 15.59 26.75 14.22 22.36 14.22 22.36 19.62 26.86 19.62 26.86 18.25"/></g></svg>