<svg xmlns="http://www.w3.org/2000/svg" viewBox="0 0 26.75 26.75"><defs><style>.cls-1{fill:#fff;}</style></defs><g id="Text"><circle class="cls-1" cx="13.38" cy="13.38" r="13.38"/><path d="M13.37,21.08H10a4.29,4.29,0,0,1-2.8-1A4.16,4.16,0,0,1,6,18.37a4.48,4.48,0,0,1-.3-1.7V10a4.17,4.17,0,0,1,1-2.74A4,4,0,0,1,8.91,5.81a4.3,4.3,0,0,1,1-.13c2.3,0,4.6,0,6.9,0A4.15,4.15,0,0,1,20.56,7.9a3.94,3.94,0,0,1,.52,2c0,2.31,0,4.63,0,6.94a4.26,4.26,0,0,1-4.27,4.23C15.66,21.09,14.51,21.08,13.37,21.08Zm0-1.36h3.38A2.85,2.85,0,0,0,18,19.46a2.82,2.82,0,0,0,1.7-2.67c0-2.27,0-4.54,0-6.81a2.75,2.75,0,0,0-.26-1.23A2.83,2.83,0,0,0,16.78,7H10a2.79,2.79,0,0,0-1.24.26A2.83,2.83,0,0,0,7,10q0,3.4,0,6.82a2.84,2.84,0,0,0,1.45,2.54,2.87,2.87,0,0,0,1.52.39Z"/><path d="M17.34,13.37a4,4,0,1,1-4-4A4,4,0,0,1,17.34,13.37Zm-1.36,0A2.61,2.61,0,1,0,13.37,16,2.62,2.62,0,0,0,16,13.38Z"/><path d="M17.35,10.22a1,1,0,1,1,1-1A1,1,0,0,1,17.35,10.22Z"/></g></svg>