<svg xmlns="http://www.w3.org/2000/svg" xmlns:xlink="http://www.w3.org/1999/xlink" viewBox="0 0 254.91 85.72"><defs><style>.cls-1{fill:url(#linear-gradient);}.cls-2{fill:url(#linear-gradient-2);}.cls-3{fill:url(#linear-gradient-3);}</style><linearGradient id="linear-gradient" x1="-1313.73" y1="1371.07" x2="-1267" y2="1371.07" gradientTransform="translate(1670 -871.16) rotate(17.35)" gradientUnits="userSpaceOnUse"><stop offset="0" stop-color="#4992f6"/><stop offset="0.1" stop-color="#6189ee"/><stop offset="0.31" stop-color="#9175df"/><stop offset="0.52" stop-color="#b766d2"/><stop offset="0.71" stop-color="#d35bc9"/><stop offset="0.87" stop-color="#e354c4"/><stop offset="1" stop-color="#e952c2"/></linearGradient><linearGradient id="linear-gradient-2" x1="17.38" y1="80.23" x2="36.07" y2="80.23" gradientUnits="userSpaceOnUse"><stop offset="0" stop-color="#e952c2"/><stop offset="1" stop-color="#ef9a4c"/></linearGradient><linearGradient id="linear-gradient-3" x1="17.38" y1="15.93" x2="86.74" y2="15.93" xlink:href="#linear-gradient-2"/></defs><g id="Text"><path class="cls-1" d="M40.8,68.22c.8-1.85.09-3.79-1.86-5l-5.49-3.58-.77-.5,2.64-.93h0a4.68,4.68,0,0,0,3.19-3.22,3.56,3.56,0,0,0-1.8-3.67l-5.45-3.55,23.85-7.36.1,0a5.39,5.39,0,0,0,3.83-3.64A4.2,4.2,0,0,0,57,32.29a7.91,7.91,0,0,0-5.15-1.09L19.08,35.05c-2.59.28-4.69,1.6-5.48,3.45s-.09,3.79,1.86,5l5.09,3.32-2.65.82-.1,0a4.68,4.68,0,0,0-3.28,3.16,3.52,3.52,0,0,0,1.77,3.69l6.08,4L4,65.07h0C1.82,65.85.41,67.24.07,68.9a4.45,4.45,0,0,0,2.21,4.54,8.29,8.29,0,0,0,5.39,1.13l27.62-2.9A6.54,6.54,0,0,0,40.8,68.22Z"/><path d="M65.3,53V25.52h25v7.24h-15v2.72H90v7.25H75.28V53Z"/><path d="M94.56,53V25.52h10V53Z"/><path d="M132,53,119.88,39.06V53h-10V25.52h10.28l11.47,13v-13h10V53Z"/><path d="M147,53V25.52H161.7c10.38,0,18.1,4.94,18.1,13.71S172.08,53,161.75,53Zm22.69-13.75c0-3.71-2.57-6.47-7.91-6.47H157v13h4.74C166.7,45.73,169.66,42.69,169.66,39.23Z"/><path d="M65.17,85.22V57.76h21.6v3.05H69.27v8.85H86.42v3H69.27V85.22Z"/><path d="M111.49,85.22l-8.35-10.91H96.51V85.22h-4.1V57.76h13.25c6,0,10.38,3.21,10.38,8.28s-4.1,7.66-8.6,8l8.9,11.19Zm.3-19.18c0-3.13-2.72-5.23-6.63-5.23H96.51v10.5h8.65C109.07,71.31,111.79,69.13,111.79,66Z"/><path d="M122.52,85.22V57.76h4.1V85.22Z"/><path d="M134.33,85.22V57.76h21.61v3.05H138.43v8.85h17.16v3H138.43v9.47h17.51v3Z"/><path d="M185.8,85.22l-19.24-21.9v21.9h-4.1V57.76h4.2l19,21.45V57.76h4.1V85.22Z"/><path d="M197.46,85.22V57.76h11.28c10.28,0,16.9,6,16.9,13.75S219,85.22,208.74,85.22Zm23.93-13.71c0-5.93-4.5-10.7-12.65-10.7h-7.17V82.18h7.17C216.74,82.18,221.39,77.4,221.39,71.51Z"/><path d="M230.09,81.35l2.48-2.63a14.79,14.79,0,0,0,10.33,4c5.88,0,7.76-2.63,7.76-4.77,0-7.09-19.53-3.13-19.53-12.93,0-4.53,4.85-7.66,11.37-7.66,5,0,8.9,1.44,11.67,3.87l-2.47,2.51a13.8,13.8,0,0,0-9.54-3.29c-3.91,0-6.78,1.77-6.78,4.36,0,6.18,19.53,2.64,19.53,12.89,0,3.95-3.26,8.07-12.16,8.07C237.06,85.72,232.81,83.91,230.09,81.35Z"/><path d="M65.3,53V25.52h25v7.24h-15v2.72H90v7.25H75.28V53Z"/><path d="M94.56,53V25.52h10V53Z"/><path d="M132,53,119.88,39.06V53h-10V25.52h10.28l11.47,13v-13h10V53Z"/><path d="M147,53V25.52H161.7c10.38,0,18.1,4.94,18.1,13.71S172.08,53,161.75,53Zm22.69-13.75c0-3.71-2.57-6.47-7.91-6.47H157v13h4.74C166.7,45.73,169.66,42.69,169.66,39.23Z"/><path d="M65.17,85.22V57.76h21.6v3.05H69.27v8.85H86.42v3H69.27V85.22Z"/><path d="M111.49,85.22l-8.35-10.91H96.51V85.22h-4.1V57.76h13.25c6,0,10.38,3.21,10.38,8.28s-4.1,7.66-8.6,8l8.9,11.19Zm.3-19.18c0-3.13-2.72-5.23-6.63-5.23H96.51v10.5h8.65C109.07,71.31,111.79,69.13,111.79,66Z"/><path d="M122.52,85.22V57.76h4.1V85.22Z"/><path d="M134.33,85.22V57.76h21.61v3.05H138.43v8.85h17.16v3H138.43v9.47h17.51v3Z"/><path d="M185.8,85.22l-19.24-21.9v21.9h-4.1V57.76h4.2l19,21.45V57.76h4.1V85.22Z"/><path d="M197.46,85.22V57.76h11.28c10.28,0,16.9,6,16.9,13.75S219,85.22,208.74,85.22Zm23.93-13.71c0-5.93-4.5-10.7-12.65-10.7h-7.17V82.18h7.17C216.74,82.18,221.39,77.4,221.39,71.51Z"/><path d="M230.09,81.35l2.48-2.63a14.79,14.79,0,0,0,10.33,4c5.88,0,7.76-2.63,7.76-4.77,0-7.09-19.53-3.13-19.53-12.93,0-4.53,4.85-7.66,11.37-7.66,5,0,8.9,1.44,11.67,3.87l-2.47,2.51a13.8,13.8,0,0,0-9.54-3.29c-3.91,0-6.78,1.77-6.78,4.36,0,6.18,19.53,2.64,19.53,12.89,0,3.95-3.26,8.07-12.16,8.07C237.06,85.72,232.81,83.91,230.09,81.35Z"/><path class="cls-2" d="M17.38,77.19v1c0,3.87,3.78,7,8.42,7h1.84c4.65,0,8.43-3.14,8.43-7v-3Z"/><path class="cls-3" d="M78.31,0H25.8c-4.64,0-8.42,3.15-8.42,7V31.85l.58-.07,18.11-2.13v-10c0-3.09,3-5.6,6.72-5.6H78.31c4.65,0,8.43-3.14,8.43-7S83,0,78.31,0Z"/></g></svg>