<svg xmlns="http://www.w3.org/2000/svg" viewBox="0 0 34.67 34.67"><defs><style>.cls-1{fill:#e73323;}.cls-2{fill:#fff;}</style></defs><g id="Text"><circle class="cls-1" cx="17.34" cy="17.34" r="17.34"/><path class="cls-2" d="M27.84,12.06a2.75,2.75,0,0,0-1.94-1.94c-1.71-.46-8.56-.46-8.56-.46s-6.86,0-8.57.46a2.77,2.77,0,0,0-1.94,1.94,29.06,29.06,0,0,0-.45,5.28,29,29,0,0,0,.45,5.27,2.75,2.75,0,0,0,1.94,1.94c1.71.46,8.57.46,8.57.46s6.85,0,8.56-.46a2.74,2.74,0,0,0,1.94-1.94,28.36,28.36,0,0,0,.46-5.27A28.45,28.45,0,0,0,27.84,12.06Zm-12.7,8.56V14.05l5.7,3.29Z"/></g></svg>