<svg xmlns="http://www.w3.org/2000/svg" viewBox="0 0 34.67 34.67"><defs><style>.cls-1{fill:#3a77e7;}.cls-2{fill:#fff;}</style></defs><g id="Text"><path class="cls-1" d="M34.67,17.34a17.34,17.34,0,1,0-20,17.12V22.35h-4.4v-5h4.4V13.52c0-4.35,2.59-6.75,6.55-6.75a26.66,26.66,0,0,1,3.88.34v4.27H22.87a2.5,2.5,0,0,0-2.82,2.7v3.26h4.8l-.77,5h-4V34.46A17.34,17.34,0,0,0,34.67,17.34Z"/><path class="cls-2" d="M24.08,22.35l.77-5h-4.8V14.09a2.5,2.5,0,0,1,2.82-2.71h2.19V7.11a26.66,26.66,0,0,0-3.88-.34c-4,0-6.55,2.4-6.55,6.75v3.82h-4.4v5h4.4V34.46a17.19,17.19,0,0,0,2.71.21,17.38,17.38,0,0,0,2.71-.21V22.35Z"/></g></svg>