<svg xmlns="http://www.w3.org/2000/svg" viewBox="0 0 34.67 34.67"><defs><style>.cls-1{fill:#fff;}.cls-2{fill:#d63658;}.cls-3{fill:#58b7c2;}</style></defs><g id="Text"><circle cx="17.34" cy="17.34" r="17.34"/><path class="cls-1" d="M12.71,24.29l.06.06c.19.14.33.33.52.48a3.32,3.32,0,0,0,5.4-2.17,2.26,2.26,0,0,0,0-.26V6.84c0-.35,0-.35.34-.35h2.37a.35.35,0,0,1,.22,0h0a.25.25,0,0,1,.06.14A5.44,5.44,0,0,0,23.89,10l.2.18.15.13a2.67,2.67,0,0,1,.48.41,5.51,5.51,0,0,0,2.17,1.1c.07,0,.15,0,.2.08v0c0,.05,0,.11,0,.17v2.74c0,.21,0,.22-.24.22a8.79,8.79,0,0,1-2-.24,9.35,9.35,0,0,1-3.11-1.34s-.1-.1-.15-.08,0,.12,0,.18c0,2.58,0,5.15,0,7.73a7.35,7.35,0,0,1-6.51,7.31,7.23,7.23,0,0,1-4.19-.74,3.42,3.42,0,0,1-.61-.37l-.18-.16A4.89,4.89,0,0,1,9.06,26a6.92,6.92,0,0,1-.9-2.48A7.16,7.16,0,0,1,8.06,22a7.37,7.37,0,0,1,5-6.65A6.42,6.42,0,0,1,14.78,15a1.73,1.73,0,0,1,.32,0,.27.27,0,0,1,.15,0h0a.34.34,0,0,1,0,.17V18a.31.31,0,0,1,0,.1c0,.09,0,.13-.14.1a4,4,0,0,0-.77-.12,3,3,0,0,0-1.19.18,3.3,3.3,0,0,0-.74,5.88Z"/><path class="cls-2" d="M10.31,27.53s.07,0,.11,0a7.54,7.54,0,0,0,2.68,1,7.12,7.12,0,0,0,1.46.08A7.23,7.23,0,0,0,18.91,27a7.13,7.13,0,0,0,2.43-3.8,6.61,6.61,0,0,0,.22-1.47c0-.28,0-.57,0-.85V13.33c.06,0,.09,0,.13.05a9.34,9.34,0,0,0,2.84,1.33,9.87,9.87,0,0,0,1.71.3c.24,0,.48,0,.73,0s.1,0,.11-.11V12c.22,0,.44.07.66.08a2.68,2.68,0,0,0,.4,0c.07,0,.1,0,.09.09V15.9c0,.1,0,.11-.11.1A8.57,8.57,0,0,1,27,15.93a9.46,9.46,0,0,1-2.21-.57,8.92,8.92,0,0,1-1.93-1l-.14-.08v8a7.12,7.12,0,0,1-1.11,3.88,7.24,7.24,0,0,1-3.73,3,7.1,7.1,0,0,1-3,.41,7.3,7.3,0,0,1-4.5-2Z"/><path class="cls-3" d="M21.63,6.53H18.94c-.2,0-.2,0-.2.19V22.2a3.46,3.46,0,0,1-.13,1.06,3.36,3.36,0,0,1-5.8,1.15.21.21,0,0,1,0-.06,4.3,4.3,0,0,0,.79.26,3.35,3.35,0,0,0,4-2.74,3.69,3.69,0,0,0,0-.58V5.79c0-.24,0-.21.2-.21h3.66c.13,0,.13,0,.13.12A3.86,3.86,0,0,0,21.63,6.53Z"/><path class="cls-3" d="M15.25,15a7.81,7.81,0,0,0-2.14.37,7.47,7.47,0,0,0-2.66,1.57,7.27,7.27,0,0,0-2.09,3.4,8,8,0,0,0-.25,1.45,8.81,8.81,0,0,0,0,.89,7.48,7.48,0,0,0,.53,2.37,7.07,7.07,0,0,0,1.46,2.27l0,.05a1.7,1.7,0,0,1-.38-.26,7.26,7.26,0,0,1-2.48-3.56A6.77,6.77,0,0,1,7,22a7.19,7.19,0,0,1,2.15-5.86,7.32,7.32,0,0,1,2.64-1.67,7.61,7.61,0,0,1,2-.41,8.66,8.66,0,0,1,1.44,0c.07,0,.11,0,.1.1Z"/><path class="cls-2" d="M12.71,24.29a2.79,2.79,0,0,1-.78-.54,3.27,3.27,0,0,1-1-2,3.33,3.33,0,0,1,2.33-3.57,3.38,3.38,0,0,1,1.89,0s.07,0,.1,0a.31.31,0,0,0,0-.16V15a6.46,6.46,0,0,1,1.08.05c.06,0,.08,0,.07.08V19s0,.09,0,.14-.33-.08-.5-.1a3.29,3.29,0,0,0-2.58.68,3.23,3.23,0,0,0-1.22,2.06,3.31,3.31,0,0,0,.55,2.46Z"/><path class="cls-2" d="M24.09,10.21a4.87,4.87,0,0,1-1-.79,5.4,5.4,0,0,1-1.49-2.85v0c.34,0,.68,0,1,0,.06,0,.09,0,.08.08v.07a5.12,5.12,0,0,0,.73,2.62,5.72,5.72,0,0,0,.57.82A.11.11,0,0,1,24.09,10.21Z"/><path class="cls-3" d="M27.09,11.93a5.36,5.36,0,0,1-2.54-1.29,2.2,2.2,0,0,1-.31-.3.09.09,0,0,1,.09,0A5.72,5.72,0,0,0,26.2,11a5.14,5.14,0,0,0,.78.07c.11,0,.11,0,.11.11Z"/></g></svg>