<svg xmlns="http://www.w3.org/2000/svg" viewBox="0 0 57 57"><defs><style>.cls-1{fill:#fff;stroke:#dadce0;stroke-miterlimit:10;}.cls-2{fill:#d55040;}.cls-3{fill:#59a35c;}.cls-4{fill:#5c8eda;}.cls-5{fill:#efbc42;}</style></defs><g id="Text"><circle class="cls-1" cx="28.5" cy="28.5" r="28"/><path class="cls-2" d="M19.52,25.39a9.84,9.84,0,0,1,9.37-6.75A9.67,9.67,0,0,1,35,20.84L39.87,16a16.65,16.65,0,0,0-25.94,5.08Z"/><path class="cls-3" d="M34.5,36.86a10.28,10.28,0,0,1-5.62,1.5,9.83,9.83,0,0,1-9.34-6.71l-5.62,4.27a16.64,16.64,0,0,0,15,9.26A15.87,15.87,0,0,0,39.77,41Z"/><path class="cls-4" d="M39.77,41a16.62,16.62,0,0,0,5-12.51,13.66,13.66,0,0,0-.38-3H28.88v6.44h9a7.56,7.56,0,0,1-3.33,4.95Z"/><path class="cls-5" d="M19.54,31.65A9.64,9.64,0,0,1,19,28.5a10,10,0,0,1,.5-3.11l-5.6-4.32a16.89,16.89,0,0,0,0,14.85Z"/></g></svg>