<svg xmlns="http://www.w3.org/2000/svg" viewBox="0 0 34.67 34.67"><defs><style>.cls-1{fill:#fcf83f;}.cls-2{fill:#fff;}</style></defs><g id="Text"><circle class="cls-1" cx="17.34" cy="17.34" r="17.34"/><path d="M10,13.29v-.16c0-.31,0-.62,0-.93a10.23,10.23,0,0,1,.26-2,6.21,6.21,0,0,1,1.14-2.37,7.05,7.05,0,0,1,3.79-2.48,8.28,8.28,0,0,1,2.48-.26,7.91,7.91,0,0,1,2.59.52,7.08,7.08,0,0,1,2.34,1.49,6.8,6.8,0,0,1,1,1.25,6.1,6.1,0,0,1,.87,2.28,11.12,11.12,0,0,1,.17,2.07c0,.19,0,.37,0,.55s.07,0,.1,0a3.47,3.47,0,0,1,.79-.07,2.33,2.33,0,0,1,1,.27,2.07,2.07,0,0,1,1,1.37,2.19,2.19,0,0,1-.46,1.92,3.3,3.3,0,0,1-.78.71l-.73.48-.3.2-.09.06a.31.31,0,0,0-.13.41l.07.18a5.94,5.94,0,0,0,1.28,1.71,7.68,7.68,0,0,0,1.9,1.34l.56.3a2,2,0,0,1,.44.33,1.47,1.47,0,0,1,.18,1.89,2.28,2.28,0,0,1-.75.73,6.17,6.17,0,0,1-.77.39,7.55,7.55,0,0,1-.84.29l-.29.1a.42.42,0,0,0-.24.23c0,.06-.05.13-.08.2a1.79,1.79,0,0,1-1.35,1.16,3.74,3.74,0,0,1-.74.09l-.83,0a5.15,5.15,0,0,0-1.29.24,2.17,2.17,0,0,0-.52.23l-.65.39a8.84,8.84,0,0,1-1.18.62,6.43,6.43,0,0,1-1.78.48,7.31,7.31,0,0,1-1.62,0,6.44,6.44,0,0,1-2.35-.69c-.3-.16-.6-.33-.89-.51L13,28.13a3.42,3.42,0,0,0-1.19-.44,7.07,7.07,0,0,0-1.3-.13,6.09,6.09,0,0,1-.85-.07,1.94,1.94,0,0,1-.62-.19,1.77,1.77,0,0,1-.87-.92,1.86,1.86,0,0,1-.1-.25.47.47,0,0,0-.29-.28l-.26-.08a7.26,7.26,0,0,1-1.44-.59,2.56,2.56,0,0,1-.79-.64A1.7,1.7,0,0,1,5,23.9a1.47,1.47,0,0,1,.33-1.38,2.2,2.2,0,0,1,.41-.33,3.67,3.67,0,0,1,.48-.26,9,9,0,0,0,1.66-1.07,6.18,6.18,0,0,0,1.51-1.75c.07-.12.13-.25.19-.37a.68.68,0,0,0,.07-.23.26.26,0,0,0-.06-.23,1.25,1.25,0,0,0-.19-.15l-1-.64A3.73,3.73,0,0,1,7.82,17a2.42,2.42,0,0,1-.62-.92,2.18,2.18,0,0,1,.49-2.3,2.16,2.16,0,0,1,1.16-.57,2.55,2.55,0,0,1,1,0Z"/><path class="cls-2" d="M23.31,13.26c0,.48,0,1-.07,1.43a1.93,1.93,0,0,1,0,.24c0,.18.1.25.28.23a.65.65,0,0,0,.19,0l.51-.19a7,7,0,0,1,.88-.29,1.4,1.4,0,0,1,.61,0,.74.74,0,0,1,.53,1,1.1,1.1,0,0,1-.2.31,2,2,0,0,1-.41.35l-.52.35-.89.58-.35.26-.18.16a.59.59,0,0,0-.15.44,2.46,2.46,0,0,0,.08.46,5.62,5.62,0,0,0,.61,1.37A8,8,0,0,0,26,22a11,11,0,0,0,2,1.25l.19.1a.43.43,0,0,1,.12.11.2.2,0,0,1,0,.21.36.36,0,0,1-.14.16,1.45,1.45,0,0,1-.26.17,5.68,5.68,0,0,1-1.26.49l-.57.16a1.73,1.73,0,0,0-.37.16.65.65,0,0,0-.36.49l-.06.37a.48.48,0,0,1-.47.47l-.32,0-.81,0a7.23,7.23,0,0,0-1.8.32,3.5,3.5,0,0,0-.71.32l-.71.42a7.6,7.6,0,0,1-1.17.6,5,5,0,0,1-1.42.33,6.32,6.32,0,0,1-1.23,0,5.09,5.09,0,0,1-1.74-.53c-.26-.13-.51-.28-.75-.43l-.54-.33a4.58,4.58,0,0,0-1.39-.52,7.79,7.79,0,0,0-1.35-.17l-.72,0a1.39,1.39,0,0,1-.4-.06.43.43,0,0,1-.34-.35,3.06,3.06,0,0,1,0-.32.13.13,0,0,1,0-.06.74.74,0,0,0-.45-.61,3,3,0,0,0-.5-.18c-.3-.09-.6-.16-.89-.26A5.4,5.4,0,0,1,6.81,24l-.21-.13-.12-.1a.23.23,0,0,1,0-.4,1.3,1.3,0,0,1,.26-.14,11.29,11.29,0,0,0,1.75-1.08,8,8,0,0,0,2-2.15,5.77,5.77,0,0,0,.65-1.43,1.62,1.62,0,0,0,.08-.49.56.56,0,0,0-.16-.43,1.37,1.37,0,0,0-.22-.19c-.22-.17-.46-.33-.69-.48l-.9-.59a2.59,2.59,0,0,1-.42-.32,1.42,1.42,0,0,1-.25-.3.76.76,0,0,1,0-.73.6.6,0,0,1,.37-.36,1,1,0,0,1,.59-.05,3.9,3.9,0,0,1,.69.19l.68.26a1.35,1.35,0,0,0,.33.09l.08,0c.13,0,.24-.05.24-.23s0-.29,0-.43a23.43,23.43,0,0,1,0-2.37,8.31,8.31,0,0,1,.18-1.5,4.79,4.79,0,0,1,.87-1.87,5.59,5.59,0,0,1,3.06-2,6.9,6.9,0,0,1,4.23.19A5.69,5.69,0,0,1,21.56,8,5.07,5.07,0,0,1,23,10.19a6.8,6.8,0,0,1,.25,1.19A16.79,16.79,0,0,1,23.31,13.26Z"/></g></svg>