<svg xmlns="http://www.w3.org/2000/svg" viewBox="0 0 57 57"><defs><style>.cls-1{fill:#fff;stroke:#dadce0;stroke-miterlimit:10;}</style></defs><g id="Text"><circle class="cls-1" cx="28.5" cy="28.5" r="28"/><path d="M42,37.82a18,18,0,0,1-1.79,3.23,16.77,16.77,0,0,1-2.31,2.79,4.52,4.52,0,0,1-3,1.31,7.48,7.48,0,0,1-2.75-.66,7.78,7.78,0,0,0-3-.65,8.19,8.19,0,0,0-3,.65,8.12,8.12,0,0,1-2.63.69,4.18,4.18,0,0,1-3-1.35A16.62,16.62,0,0,1,18.07,41a20.49,20.49,0,0,1-2.56-5.08,18.66,18.66,0,0,1-1.07-6A11,11,0,0,1,15.9,24a8.49,8.49,0,0,1,3-3.07A8.28,8.28,0,0,1,23,19.81a9.76,9.76,0,0,1,3.18.74,10.26,10.26,0,0,0,2.52.74,14.68,14.68,0,0,0,2.8-.88,9.18,9.18,0,0,1,3.8-.67,8,8,0,0,1,6.32,3.32,7.3,7.3,0,0,0-1.42,11.7,7.49,7.49,0,0,0,2.32,1.51c-.21.54-.4,1.06-.61,1.55ZM35.52,12.49a7.17,7.17,0,0,1-1.83,4.67,6.22,6.22,0,0,1-5.17,2.55q0-.3,0-.63a7.3,7.3,0,0,1,1.93-4.72,7.62,7.62,0,0,1,2.36-1.77,6.9,6.9,0,0,1,2.7-.77c0,.22,0,.45,0,.67Z"/></g></svg>