<svg xmlns="http://www.w3.org/2000/svg" xmlns:xlink="http://www.w3.org/1999/xlink" viewBox="0 0 162.78 162.78"><defs><style>.cls-1{fill:#ededee;stroke:#fff;stroke-miterlimit:10;stroke-width:3px;}.cls-2{fill:url(#linear-gradient);}</style><linearGradient id="linear-gradient" x1="36.05" y1="81.39" x2="126.73" y2="81.39" gradientUnits="userSpaceOnUse"><stop offset="0" stop-color="#e952c2"/><stop offset="1" stop-color="#ef9a4c"/></linearGradient></defs><g id="Text"><circle class="cls-1" cx="81.39" cy="81.39" r="79.89"/><path class="cls-2" d="M81.31,116.27q-18.63,0-37.26,0c-5,0-8-3-8-8V65.55c0-5,3-7.92,7.93-7.92q6.71,0,13.4,0A2.15,2.15,0,0,0,59.1,57c2.65-2.74,5.35-5.44,8-8.16a7.23,7.23,0,0,1,5.36-2.29c6,0,12,0,18.08,0a7.68,7.68,0,0,1,5.68,2.57c2.55,2.59,5.13,5.15,7.65,7.76a2.45,2.45,0,0,0,2,.81c4.36,0,8.72,0,13.08,0,4.74,0,7.78,3,7.78,7.75v43c0,4.76-3.09,7.85-7.83,7.85Q100.11,116.29,81.31,116.27Zm.07-11A20.19,20.19,0,1,0,61.27,85.06,20.14,20.14,0,0,0,81.38,105.25Zm36.7-36a3,3,0,0,0,3-3.09,3.07,3.07,0,0,0-3.08-3,3.12,3.12,0,0,0-3,3.12A3.06,3.06,0,0,0,118.08,69.26Z"/></g></svg>