<svg xmlns="http://www.w3.org/2000/svg" viewBox="0 0 26.75 26.75"><defs><style>.cls-1{fill:#fff;}</style></defs><g id="Text"><circle class="cls-1" cx="13.38" cy="13.38" r="13.38"/><path d="M11.7,14l-.33,0a2.43,2.43,0,1,0,.4,4.83,2.49,2.49,0,0,0,2.16-2,2.68,2.68,0,0,0,0-.4L14,5.75v-.2h2.24a4.17,4.17,0,0,0,1.26,2.56,4.22,4.22,0,0,0,2.58,1.17s0,.07,0,.11v2.34c0,.15-.06.16-.17.16a4.13,4.13,0,0,1-3.56-1.67.51.51,0,0,0-.15-.14v6.35a4.76,4.76,0,1,1-4.77-4.75h.2c.05,0,.1.07.1.1,0,.74,0,1.48,0,2.21Z"/></g></svg>