<svg xmlns="http://www.w3.org/2000/svg" viewBox="0 0 26.75 26.75"><defs><style>.cls-1{fill:#fff;}</style></defs><g id="Text"><circle class="cls-1" cx="13.38" cy="13.38" r="13.38"/><path d="M6.36,18.21A6.41,6.41,0,0,0,11,16.91l-.22,0A3.1,3.1,0,0,1,8.84,16a3.14,3.14,0,0,1-.76-1.21c0-.06,0-.06,0,0a3.29,3.29,0,0,0,.94,0,2.7,2.7,0,0,0,.39-.08s0,0,0,0A3.18,3.18,0,0,1,7,12.16a3.68,3.68,0,0,1,0-.58c0-.06,0-.06,0,0a3.13,3.13,0,0,0,1.15.35h.19a.11.11,0,0,0,0-.05,3.06,3.06,0,0,1-1.17-1.59A2.71,2.71,0,0,1,7,9.42a3.12,3.12,0,0,1,.39-1.67s0,0,.07,0a8.86,8.86,0,0,0,.89.95A10,10,0,0,0,10,9.87a9.36,9.36,0,0,0,1.52.67,9.25,9.25,0,0,0,1.73.4l.62.06s.06,0,0-.06a2.9,2.9,0,0,1-.06-.66A3.11,3.11,0,0,1,14.09,9a3.18,3.18,0,0,1,1.57-1.6,3.14,3.14,0,0,1,1.17-.28,3.07,3.07,0,0,1,1.52.3,2.93,2.93,0,0,1,.88.64.12.12,0,0,0,.13,0,6.68,6.68,0,0,0,1.89-.73l0,0a3.22,3.22,0,0,1-1.35,1.74,5.38,5.38,0,0,0,.89-.17,6.23,6.23,0,0,0,.88-.32,2.26,2.26,0,0,1-.19.28,5.9,5.9,0,0,1-.66.75,5.81,5.81,0,0,1-.65.56.14.14,0,0,0-.07.13,5.93,5.93,0,0,1,0,.73,10.71,10.71,0,0,1-.18,1.4,9.71,9.71,0,0,1-1.33,3.21,8.83,8.83,0,0,1-1.33,1.6,8.71,8.71,0,0,1-1.73,1.28,8.78,8.78,0,0,1-2.27.86,11.82,11.82,0,0,1-1.17.18,11.06,11.06,0,0,1-1.15.05,8.67,8.67,0,0,1-1.24-.12,9,9,0,0,1-3.06-1.09l-.28-.17S6.37,18.24,6.36,18.21Z"/></g></svg>