<svg xmlns="http://www.w3.org/2000/svg" viewBox="0 0 53.77 53.77"><defs><style>.cls-1{fill:#fff;}</style></defs><g id="Text"><rect width="53.77" height="53.77" rx="12.1"/><path class="cls-1" d="M39.45,19.45H33.14a.79.79,0,0,1-.79-.78V12.35a.79.79,0,0,1,1.35-.55L40,18.11A.79.79,0,0,1,39.45,19.45Z"/><path class="cls-1" d="M29.67,20.49V11.8A1.63,1.63,0,0,0,28,10.16H15.84a3.19,3.19,0,0,0-3.26,3.26V40.21s.37,3.38,3,3.38H37.93a2.74,2.74,0,0,0,3.26-2.9V23.78a1.65,1.65,0,0,0-1.65-1.65H31.32A1.64,1.64,0,0,1,29.67,20.49Z"/><path d="M32,29.65a5.17,5.17,0,0,0-10.29,0,5.16,5.16,0,0,0,1.05,10.22H31A5.16,5.16,0,0,0,32,29.65Z"/><path class="cls-1" d="M29.58,31.51l-2.22-2.22a.66.66,0,0,0-.95,0l-2.22,2.22a.67.67,0,0,0,.48,1.14h1a1.13,1.13,0,0,0,0,.18v2.65a.68.68,0,0,0,.68.69h1a.69.69,0,0,0,.69-.69V32.83a.58.58,0,0,0,0-.18h1.13A.67.67,0,0,0,29.58,31.51Z"/></g></svg>