<svg xmlns="http://www.w3.org/2000/svg" viewBox="0 0 53.77 53.77"><defs><style>.cls-1{fill:#fff;}.cls-2{fill:#f2f2f2;}</style></defs><g id="Text"><rect width="53.77" height="53.77" rx="12.1"/><path class="cls-1" d="M34.73,31.46c0,.07,0,.12,0,.17,0,.44,0,.89,0,1.34a3.11,3.11,0,0,1-1.49,2.46,3.26,3.26,0,0,1-1.78.48H14.91a3.18,3.18,0,0,1-3.19-2.73,4.58,4.58,0,0,1,0-.53V29c0-2.63,0-5.26,0-7.89a3.15,3.15,0,0,1,2-3,2.78,2.78,0,0,1,1.17-.23h5.28c3.8,0,7.6,0,11.39,0a3.06,3.06,0,0,1,2.9,1.85,3,3,0,0,1,.3,1.35v1.25l.52-.29,3.08-1.75L40.57,19a1,1,0,0,1,1.37.3.93.93,0,0,1,.14.49c0,3.16,0,6.33,0,9.49,0,1.56,0,3.12,0,4.68a.94.94,0,0,1-.84,1,.89.89,0,0,1-.6-.13l-2.55-1.46c-.92-.51-1.83-1-2.74-1.55l-.45-.26ZM23.2,34m17-12.59-.41.23-2.71,1.54c-.75.43-1.5.85-2.24,1.29a.19.19,0,0,0-.09.16c0,1.5,0,3,0,4.51a.17.17,0,0,0,.11.18l1.56.89,3.42,1.95.37.2Z"/><path d="M27,24.93a3.66,3.66,0,0,0-7.3,0,3.67,3.67,0,0,0,.74,7.26h5.82A3.67,3.67,0,0,0,27,24.93Z"/><path class="cls-2" d="M25.25,26.25l-1.57-1.58a.5.5,0,0,0-.68,0l-1.57,1.58a.47.47,0,0,0,.33.81h.69a.51.51,0,0,0,0,.13v1.88a.48.48,0,0,0,.48.49h.75a.48.48,0,0,0,.48-.49V27.19a.51.51,0,0,0,0-.13h.8A.47.47,0,0,0,25.25,26.25Z"/></g></svg>