<svg xmlns="http://www.w3.org/2000/svg" viewBox="0 0 26.75 26.75"><defs><style>.cls-1{fill:#fff;}</style></defs><g id="Text"><circle class="cls-1" cx="13.38" cy="13.38" r="13.38"/><path d="M21.62,10.83c0-.09,0-.18,0-.27a3,3,0,0,0-.74-2.23,2.9,2.9,0,0,0-1.52-.45c-1.83-.18-3.68-.24-5.53-.24-1.36,0-2.73,0-4.11.07H9.14c-1.27,0-3,0-3.55,1.08a3.67,3.67,0,0,0-.3,1.09,24.38,24.38,0,0,0,0,6.84,2.84,2.84,0,0,0,.44,1.42,3,3,0,0,0,2.2.76,73.22,73.22,0,0,0,11.52-.06,2.61,2.61,0,0,0,1.45-.42,2.56,2.56,0,0,0,.66-1.69A33.5,33.5,0,0,0,21.62,10.83ZM11.66,16V10.74l4.58,2.63Z"/></g></svg>